<?xml version="1.0" encoding="UTF-8" standalone="no"?>
<!-- Created with Inkscape (http://www.inkscape.org/) -->

<svg
   xmlns:dc="http://purl.org/dc/elements/1.1/"
   xmlns:cc="http://creativecommons.org/ns#"
   xmlns:rdf="http://www.w3.org/1999/02/22-rdf-syntax-ns#"
   xmlns:svg="http://www.w3.org/2000/svg"
   xmlns="http://www.w3.org/2000/svg"
   version="1.1"
   width="18.246176"
   height="15.965404"
   id="svg3517">
  <defs
     id="defs3519" />
  <metadata
     id="metadata3522">
    <rdf:RDF>
      <cc:Work
         rdf:about="">
        <dc:format>image/svg+xml</dc:format>
        <dc:type
           rdf:resource="http://purl.org/dc/dcmitype/StillImage" />
        <dc:title></dc:title>
      </cc:Work>
    </rdf:RDF>
  </metadata>
  <g
     transform="translate(-425.16263,-484.37948)"
     id="layer1">
    <g
       transform="matrix(0.57019297,0,0,0.57019297,425.16263,484.37948)"
       id="g4541"
       style="fill:#2468b0;fill-opacity:1;display:inline">
      <path
         d="M 16,4 C 16,4 12,0 0,0 v 24 c 12.125,0 16,4 16,4 0,0 3.875,-4 16,-4 V 0 C 20,0 16,4 16,4 z M 4,4 c 5.084,0.426 8.203,1.602 10,2.555 V 22.664 C 12.203,21.715 9.084,20.539 4,20.109 V 4 z m 24,16.109 c -5.086,0.43 -8.203,1.605 -10,2.555 V 6.555 C 19.797,5.602 22.914,4.426 28,4 v 16.109 z"
         id="path4543"
         style="fill:#2468b0;fill-opacity:1" />
    </g>
  </g>
</svg>
