<?xml version="1.0" encoding="UTF-8" standalone="no"?>
<!-- Created with Inkscape (http://www.inkscape.org/) -->

<svg
   xmlns:dc="http://purl.org/dc/elements/1.1/"
   xmlns:cc="http://creativecommons.org/ns#"
   xmlns:rdf="http://www.w3.org/1999/02/22-rdf-syntax-ns#"
   xmlns:svg="http://www.w3.org/2000/svg"
   xmlns="http://www.w3.org/2000/svg"
   xmlns:xlink="http://www.w3.org/1999/xlink"
   xmlns:sodipodi="http://sodipodi.sourceforge.net/DTD/sodipodi-0.dtd"
   xmlns:inkscape="http://www.inkscape.org/namespaces/inkscape"
   version="1.1"
   width="130"
   height="45"
   id="svg3512"
   inkscape:version="0.48.3.1 r9886"
   sodipodi:docname="parole.svg"
   inkscape:export-filename="/home/joaomak/Dropbox/jm/playparole/parole-tre/app/www/img/parole.png"
   inkscape:export-xdpi="90"
   inkscape:export-ydpi="90">
  <sodipodi:namedview
     pagecolor="#114379"
     bordercolor="#666666"
     borderopacity="1"
     objecttolerance="10"
     gridtolerance="10"
     guidetolerance="10"
     inkscape:pageopacity="0"
     inkscape:pageshadow="2"
     inkscape:window-width="1871"
     inkscape:window-height="1056"
     id="namedview30"
     showgrid="false"
     inkscape:zoom="4.6807445"
     inkscape:cx="122.72602"
     inkscape:cy="6.3944904"
     inkscape:window-x="49"
     inkscape:window-y="24"
     inkscape:window-maximized="1"
     inkscape:current-layer="svg3512"
     inkscape:showpageshadow="false" />
  <defs
     id="defs3514">
    <filter
       x="-0.030584235"
       y="-0.11262146"
       width="1.0611686"
       height="1.2252429"
       color-interpolation-filters="sRGB"
       id="filter5532-2-6">
      <feGaussianBlur
         stdDeviation="2.1783412"
         id="feGaussianBlur5534-2-5" />
    </filter>
    <linearGradient
       x1="-301.94296"
       y1="-1041.46"
       x2="-301.94296"
       y2="-1063.795"
       id="linearGradient4560"
       xlink:href="#linearGradient5544-7-7-2"
       gradientUnits="userSpaceOnUse"
       gradientTransform="matrix(0.35865742,0,0,0.39208725,456.22244,772.79785)" />
    <linearGradient
       id="linearGradient5544-7-7-2">
      <stop
         id="stop5546-1-2-4"
         style="stop-color:#ababab;stop-opacity:1"
         offset="0" />
      <stop
         id="stop5548-5-7-7"
         style="stop-color:#ffffff;stop-opacity:1"
         offset="1" />
    </linearGradient>
    <filter
       color-interpolation-filters="sRGB"
       id="filter5406-9-8">
      <feGaussianBlur
         stdDeviation="3.6708836"
         id="feGaussianBlur5408-4-5" />
    </filter>
    <linearGradient
       x1="1889.2493"
       y1="615.00195"
       x2="1889.2493"
       y2="518.375"
       id="linearGradient4558"
       xlink:href="#linearGradient5410-61-1"
       gradientUnits="userSpaceOnUse"
       gradientTransform="matrix(0.40544565,0,0,0.40528245,-407.05517,102.91453)" />
    <linearGradient
       id="linearGradient5410-61-1">
      <stop
         id="stop5412-06-33"
         style="stop-color:#ececec;stop-opacity:1"
         offset="0" />
      <stop
         id="stop5414-1-3"
         style="stop-color:#ffffff;stop-opacity:1"
         offset="1" />
    </linearGradient>
    <linearGradient
       inkscape:collect="always"
       xlink:href="#linearGradient5410-61-1"
       id="linearGradient3070"
       gradientUnits="userSpaceOnUse"
       gradientTransform="matrix(0.40544565,0,0,0.40528245,-407.05517,102.91453)"
       x1="1889.2493"
       y1="615.00195"
       x2="1889.2493"
       y2="518.375" />
    <linearGradient
       inkscape:collect="always"
       xlink:href="#linearGradient5410-61-1"
       id="linearGradient3076"
       gradientUnits="userSpaceOnUse"
       gradientTransform="matrix(0.39481832,0,0,0.3946594,-724.67145,-193.41602)"
       x1="1889.2493"
       y1="615.00195"
       x2="1889.2493"
       y2="518.375" />
  </defs>
  <metadata
     id="metadata3517">
    <rdf:RDF>
      <cc:Work
         rdf:about="">
        <dc:format>image/svg+xml</dc:format>
        <dc:type
           rdf:resource="http://purl.org/dc/dcmitype/StillImage" />
        <dc:title></dc:title>
      </cc:Work>
    </rdf:RDF>
  </metadata>
  <path
     d="m 19.853392,1.4061929 17.456844,6.3468127 c 0.874365,0.317884 1.655752,0.865669 1.700342,2.4575994 L 38.187844,28.26033 c -0.255873,0.864364 -0.03428,1.65028 -1.295772,2.679847 l -13.14001,10.847468 c -1.044457,0.862241 -2.651539,0.992018 -4.153598,-0.01675 L 4.9641463,31.942147 C 4.4590422,31.373133 3.8463929,31.016541 3.6843642,29.77091 L 1.6908633,11.076946 C 1.379806,9.5519244 2.0568033,8.7230156 3.01431,8.0918256 L 16.912415,1.3747591 c 0.980303,-0.47161563 1.960674,-0.39645863 2.940977,0.031453 l 0,7.79e-5 z"
     id="path5436-1-5"
     style="fill:url(#linearGradient3076);fill-opacity:1;fill-rule:evenodd;stroke:none;display:inline"
     inkscape:connector-curvature="0" />
  <path
     d="m 18.54017,2.9632808 c -0.288017,0.022981 -0.584711,0.1292315 -0.934184,0.3631647 -3.891805,1.8167972 -7.7850013,3.630157 -11.6768056,5.4469541 -1.0458878,0.488267 -1.0125453,0.492143 0.051903,0.968394 5.0395306,2.4410644 10.0798016,4.8735004 15.1193036,7.3145154 0.938157,0.454418 1.305412,0.425175 2.196974,-0.22476 C 27.270418,14.541198 31.2433,12.239707 35.216386,9.9492498 36.46155,9.2314696 36.30292,9.2663416 34.974176,8.8080566 30.012236,6.9851637 25.041786,5.1666136 20.07974,3.3437887 19.468658,3.1192038 19.020082,2.9249038 18.54018,2.9632808 z m 4.791799,3.1298731 2.750544,1.0893773 -5.27621,7.5393538 -2.73323,-1.331452 0.986039,-1.193153 -3.010029,-1.400688 -1.868291,0.72629 -2.785152,-1.348794 11.936329,-4.0809341 z m -0.830398,2.0577417 -4.030637,1.6773702 1.86832,0.8300382 2.162317,-2.5074084 z"
     id="path5440-1-0"
     style="fill:#dc0d00;fill-opacity:0.99612403;fill-rule:evenodd;stroke:none;display:inline"
     inkscape:connector-curvature="0" />
  <path
     d="m 3.5764976,12.093464 c -0.255152,0.01354 -0.1591852,0.423452 -0.051903,1.296969 L 5.219902,28.91866 c 0.088031,0.808634 0.1686699,1.155332 0.9514498,1.539014 4.2333122,2.835848 8.4640722,5.671792 12.6974622,8.507708 0.88495,0.59293 0.918945,0.622689 0.882253,-0.484177 0.05025,-5.591348 -0.05015,-11.234589 0,-16.825206 0.0068,-0.783724 0.03252,-1.061877 -0.761162,-1.366031 C 14.10914,17.669981 9.3672187,15.091622 4.4933195,12.473972 4.0078275,12.213347 3.7295967,12.085537 3.5764879,12.093464 z m 4.1344626,6.864985 5.0512938,2.317159 c 0.837955,0.493234 1.492565,1.127569 1.972107,1.884787 0.483554,0.759633 0.764405,1.50093 0.813045,2.230716 0.0409,0.612026 -0.08959,1.047456 -0.380576,1.296872 -0.194017,0.166265 -0.499806,0.210816 -0.899527,0.138327 0.63642,0.546548 1.131377,1.119243 1.453087,1.729224 0.325294,0.607644 0.509633,1.243012 0.55356,1.90214 0.03545,0.536694 -0.04431,0.957147 -0.224867,1.262283 -0.181018,0.305137 -0.448761,0.483311 -0.795741,0.518806 -0.214945,0.02269 -0.536188,-0.06252 -0.986039,-0.259388 -0.598403,-0.261784 -1.013315,-0.454341 -1.210945,-0.57065 L 8.4202288,28.676596 7.7109602,18.958449 z m 2.8716248,3.060715 0.138404,1.953955 1.159052,0.691711 c 0.418992,0.246632 0.714274,0.333474 0.864938,0.259418 0.154473,-0.07654 0.211946,-0.280383 0.190288,-0.605239 -0.01967,-0.301339 -0.116883,-0.580106 -0.294103,-0.847303 -0.173383,-0.2649 -0.457856,-0.52125 -0.864909,-0.760831 l -1.19367,-0.691711 z m 0.259524,3.925254 0.15568,2.109635 1.366614,0.795448 c 0.462453,0.272194 0.774601,0.375357 0.951411,0.293997 0.176636,-0.08608 0.26417,-0.293013 0.24222,-0.622504 -0.02006,-0.306052 -0.144101,-0.603924 -0.345996,-0.899196 -0.198293,-0.297688 -0.532974,-0.587779 -1.003314,-0.864657 l -1.366615,-0.812723 z"
     id="path5442-5-8"
     style="fill:#157a00;fill-opacity:0.75;fill-rule:evenodd;stroke:none;display:inline"
     inkscape:connector-curvature="0" />
  <path
     d="m 37.17114,11.609316 c -0.11072,-0.0039 -0.302614,0.126281 -0.640032,0.380469 -4.180445,2.708729 -8.27357,5.225855 -12.455281,7.937029 -0.711538,0.462082 -0.801516,0.701127 -0.691965,1.590829 0.112259,5.694579 0.216513,11.389966 0.328693,17.084584 0.04626,0.365317 0.301699,0.63382 0.847634,0.276653 l 11.330848,-9.424179 c 0.347204,-0.446462 0.631852,-0.93919 0.622796,-1.608143 0.265766,-4.736556 0.49298,-10.578158 0.761123,-15.268917 0.03545,-0.610234 0.08073,-0.964128 -0.103816,-0.968325 z m -4.895585,7.020625 c 0.301115,-0.01938 0.578206,0.01753 0.813045,0.10367 0.630109,0.228198 1.096067,0.814954 1.401204,1.763891 l -2.387272,1.763697 c -0.08326,-0.276322 -0.168339,-0.467818 -0.259456,-0.570611 -0.150597,-0.1735 -0.335587,-0.265698 -0.553599,-0.293928 -0.217963,-0.02814 -0.457077,0.02736 -0.726544,0.155601 -0.610273,0.290637 -1.07626,0.799432 -1.401194,1.538976 -0.245725,0.550891 -0.36331,1.284261 -0.36331,2.213372 0,1.150755 0.139203,1.872011 0.432508,2.161548 0.293237,0.284804 0.697154,0.304776 1.22822,0.0518 0.515144,-0.245248 0.914747,-0.603262 1.176326,-1.072034 0.265514,-0.470739 0.451965,-1.068966 0.570865,-1.781117 l 2.369957,-0.276654 c -0.158552,0.863079 -0.420345,1.643921 -0.761161,2.334425 -0.340778,0.690533 -0.755573,1.287952 -1.262829,1.798392 -0.503283,0.508425 -1.156754,0.959669 -1.937488,1.331452 -0.947146,0.45102 -1.71568,0.661066 -2.318065,0.622504 -0.598403,-0.04509 -1.120967,-0.385182 -1.556903,-1.002905 -0.435946,-0.617801 -0.640042,-1.565667 -0.640042,-2.853259 0,-1.716633 0.376856,-3.212012 1.141748,-4.495952 0.768825,-1.290397 1.849263,-2.271508 3.252171,-2.939546 0.686122,-0.326755 1.279928,-0.520695 1.781819,-0.553346 z"
     id="path5444-9-0"
     style="fill:#145dab;fill-opacity:0.9263566;fill-rule:evenodd;stroke:none;display:inline"
     inkscape:connector-curvature="0" />
  <path
     inkscape:connector-curvature="0"
     id="path3008"
     style="font-size:22.40820312px;font-style:normal;font-variant:normal;font-weight:bold;font-stretch:normal;text-align:start;line-height:100%;letter-spacing:-1.09721756;writing-mode:lr-tb;text-anchor:start;fill:#ffffff;fill-opacity:1;fill-rule:evenodd;stroke:none;stroke-width:1;marker:none;visibility:visible;font-family:Tahoma;-inkscape-font-specification:Tahoma Bold"
     d="m 64.830325,15.797048 c -2.4e-5,1.006898 -0.146155,1.965378 -0.438379,2.875425 -0.292273,0.910087 -0.712938,1.670098 -1.262008,2.280022 -0.33654,0.377597 -0.708507,0.726126 -1.115866,1.045615 -0.398544,0.319502 -0.841354,0.590585 -1.328419,0.813249 -0.487102,0.22269 -1.01847,0.396962 -1.594104,0.522814 -0.566808,0.125826 -1.204447,0.188792 -1.91293,0.188792 l -2.60371,0 0,7.072406 -4.968289,0 0,-21.6238564 7.67827,0 c 1.142431,2.6e-5 2.12546,0.116269 2.949089,0.348543 0.832467,0.2226898 1.585241,0.5809092 2.25832,1.0746564 0.743898,0.542179 1.319544,1.268305 1.726952,2.178352 0.407358,0.900412 0.61105,1.975068 0.611074,3.223982 m -5.101137,0.130736 c -1.2e-5,-0.609923 -0.13286,-1.132737 -0.398532,-1.568416 -0.265696,-0.445341 -0.58451,-0.750309 -0.956465,-0.914918 -0.469375,-0.222651 -0.921049,-0.348516 -1.354985,-0.377584 -0.425109,-0.03876 -1.005174,-0.058 -1.740234,-0.05813 l -0.704063,0 0,6.47699 0.34539,0 c 0.469376,1.3e-5 0.912174,-0.0053 1.32842,-0.01447 0.416234,-0.0093 0.779338,-0.04353 1.089313,-0.101669 0.265672,-0.04845 0.544638,-0.140373 0.836899,-0.275928 0.3011,-0.145217 0.531356,-0.304955 0.690781,-0.479239 0.336515,-0.358206 0.562352,-0.730945 0.677498,-1.118231 0.123973,-0.387246 0.185966,-0.910047 0.185978,-1.568416" />
  <path
     inkscape:connector-curvature="0"
     id="path3010"
     style="font-size:22.40820312px;font-style:normal;font-variant:normal;font-weight:bold;font-stretch:normal;text-align:start;line-height:100%;letter-spacing:-1.09721756;writing-mode:lr-tb;text-anchor:start;fill:#ffffff;fill-opacity:1;fill-rule:evenodd;stroke:none;stroke-width:1;marker:none;visibility:visible;font-family:Tahoma;-inkscape-font-specification:Tahoma Bold"
     d="m 74.138819,26.340308 0,-3.398239 c -0.788201,0.0872 -1.42584,0.164596 -1.912917,0.232353 -0.487102,0.05814 -0.965328,0.179116 -1.434703,0.363063 -0.407383,0.154907 -0.726209,0.392104 -0.956453,0.711593 -0.221417,0.309826 -0.33212,0.726126 -0.332108,1.248927 -1.2e-5,0.764857 0.185966,1.292502 0.557933,1.58295 0.380806,0.280759 0.938751,0.421145 1.67381,0.421145 0.407371,0 0.823617,-0.101669 1.248714,-0.304968 0.425084,-0.203313 0.810334,-0.488916 1.155724,-0.856824 m 0,2.526896 c -0.318825,0.290448 -0.606655,0.551855 -0.863464,0.784208 -0.247982,0.232366 -0.584521,0.464719 -1.009606,0.697086 -0.416246,0.222663 -0.823629,0.392104 -1.222149,0.50828 -0.389669,0.116137 -0.938751,0.174271 -1.647233,0.174271 -1.319569,0 -2.417733,-0.484084 -3.294491,-1.452239 -0.867895,-0.968169 -1.301855,-2.188042 -1.301843,-3.659646 -1.2e-5,-1.210198 0.221393,-2.188042 0.664204,-2.933534 0.44281,-0.745478 1.08045,-1.33605 1.912929,-1.771728 0.841331,-0.445341 1.846494,-0.755154 3.015513,-0.929439 1.169007,-0.174258 2.426571,-0.309799 3.772717,-0.406624 l 0,-0.0872 c -1.2e-5,-0.900371 -0.305555,-1.519997 -0.916618,-1.858864 -0.602223,-0.34853 -1.509978,-0.522801 -2.723263,-0.522814 -0.549082,1.3e-5 -1.191153,0.111358 -1.9262,0.334022 -0.735072,0.213001 -1.452417,0.488929 -2.152049,0.827769 l -0.39852,0 0,-3.93556 c 0.460513,-0.145218 1.204423,-0.314645 2.231743,-0.508294 1.027308,-0.203286 2.06348,-0.304955 3.108502,-0.304969 2.56827,1.4e-5 4.436921,0.469578 5.60594,1.408679 1.177846,0.929452 1.766787,2.352637 1.766799,4.269583 l 0,11.095116 -4.622911,0 0,-1.728167" />
  <path
     inkscape:connector-curvature="0"
     id="path3012"
     style="font-size:22.40820312px;font-style:normal;font-variant:normal;font-weight:bold;font-stretch:normal;text-align:start;line-height:100%;letter-spacing:-1.09721756;writing-mode:lr-tb;text-anchor:start;fill:#ffffff;fill-opacity:1;fill-rule:evenodd;stroke:none;stroke-width:1;marker:none;visibility:visible;font-family:Tahoma;-inkscape-font-specification:Tahoma Bold"
     d="m 90.859912,19.093631 -0.385237,0 c -0.177139,-0.06782 -0.43396,-0.116137 -0.770488,-0.145231 -0.336539,-0.03876 -0.708494,-0.058 -1.115877,-0.05813 -0.487089,1.3e-5 -1.000744,0.07751 -1.540962,0.232353 -0.53138,0.154919 -1.049454,0.338867 -1.554257,0.551855 l 0,10.920844 -4.649464,0 0,-16.308658 4.649464,0 0,2.338104 c 0.212542,-0.212975 0.504803,-0.479227 0.876758,-0.798729 0.380806,-0.329164 0.726197,-0.590558 1.036171,-0.784208 0.336528,-0.222664 0.726197,-0.411455 1.169007,-0.566375 0.451662,-0.164569 0.876747,-0.24686 1.275291,-0.246887 0.150538,2.7e-5 0.318801,0.0053 0.504791,0.01447 0.185977,0.0093 0.354241,0.02416 0.504803,0.04354 l 0,4.806918" />
  <path
     inkscape:connector-curvature="0"
     id="path3014"
     style="font-size:22.40820312px;font-style:normal;font-variant:normal;font-weight:bold;font-stretch:normal;text-align:start;line-height:100%;letter-spacing:-1.09721756;writing-mode:lr-tb;text-anchor:start;fill:#ffffff;fill-opacity:1;fill-rule:evenodd;stroke:none;stroke-width:1;marker:none;visibility:visible;font-family:Tahoma;-inkscape-font-specification:Tahoma Bold"
     d="m 105.62823,22.448309 c -1e-5,2.681802 -0.67308,4.797228 -2.0192,6.34628 -1.3373,1.539375 -3.2325,2.309063 -5.685637,2.309063 -2.435446,0 -4.330662,-0.769688 -5.685647,-2.309063 -1.346133,-1.549052 -2.0192,-3.664478 -2.0192,-6.34628 0,-2.710843 0.673067,-4.831114 2.0192,-6.360813 1.354985,-1.539362 3.250201,-2.30905 5.685647,-2.309063 2.444277,1.3e-5 4.339487,0.774545 5.685637,2.323583 1.34612,1.539389 2.01919,3.654815 2.0192,6.346293 m -4.76903,0.02907 c -1e-5,-0.968155 -0.0753,-1.771728 -0.22584,-2.410719 -0.14171,-0.648653 -0.34097,-1.166623 -0.59778,-1.553895 -0.274557,-0.406612 -0.584519,-0.687384 -0.929897,-0.842303 -0.345403,-0.164569 -0.739491,-0.246861 -1.18229,-0.246874 -0.416246,1.3e-5 -0.792632,0.0726 -1.12916,0.217833 -0.336539,0.135555 -0.646502,0.401793 -0.9299,0.798728 -0.265684,0.377597 -0.478238,0.895567 -0.637639,1.553896 -0.159413,0.658356 -0.239119,1.486138 -0.239119,2.483334 0,0.99721 0.07527,1.805627 0.225837,2.42524 0.15055,0.60995 0.345378,1.098865 0.584509,1.46676 0.247958,0.377583 0.557921,0.653511 0.929888,0.827782 0.371955,0.174272 0.783758,0.261407 1.235431,0.261407 0.371955,0 0.74833,-0.0872 1.12916,-0.261407 0.389657,-0.174271 0.69962,-0.435665 0.92989,-0.784208 0.27453,-0.416313 0.48266,-0.914905 0.62435,-1.495814 0.14169,-0.590572 0.21255,-1.40382 0.21256,-2.43976" />
  <path
     inkscape:connector-curvature="0"
     id="path3016"
     style="font-size:22.40820312px;font-style:normal;font-variant:normal;font-weight:bold;font-stretch:normal;text-align:start;line-height:100%;letter-spacing:-1.09721756;writing-mode:lr-tb;text-anchor:start;fill:#ffffff;fill-opacity:1;fill-rule:evenodd;stroke:none;stroke-width:1;marker:none;visibility:visible;font-family:Tahoma;-inkscape-font-specification:Tahoma Bold"
     d="m 111.41642,30.595371 -4.64948,0 0,-22.5968564 4.64948,0 0,22.5968564" />
  <path
     inkscape:connector-curvature="0"
     id="path3018"
     style="font-size:22.40820312px;font-style:normal;font-variant:normal;font-weight:bold;font-stretch:normal;text-align:start;line-height:100%;letter-spacing:-1.09721756;writing-mode:lr-tb;text-anchor:start;fill:#ffffff;fill-opacity:1;fill-rule:evenodd;stroke:none;stroke-width:1;marker:none;visibility:visible;font-family:Tahoma;-inkscape-font-specification:Tahoma Bold"
     d="m 121.30942,31.031049 c -2.81625,0 -4.97715,-0.735802 -6.48268,-2.207406 -1.4967,-1.471605 -2.24504,-3.567666 -2.24504,-6.288198 0,-2.662437 0.69964,-4.78754 2.09891,-6.375347 1.39926,-1.587755 3.35647,-2.381652 5.87162,-2.381665 2.28487,1.3e-5 4.00296,0.672889 5.15427,2.018615 1.15128,1.345752 1.72692,3.272387 1.72695,5.779917 l 0,1.829823 -10.18899,0 c 0.0443,0.755168 0.19041,1.389314 0.43838,1.902426 0.24797,0.503449 0.57564,0.905242 0.98303,1.205366 0.39852,0.300124 0.86346,0.517969 1.39484,0.653511 0.53136,0.125826 1.11143,0.188792 1.74023,0.188778 0.54021,1.4e-5 1.07158,-0.06291 1.59411,-0.188778 0.5225,-0.135542 1.00073,-0.309813 1.43469,-0.522814 0.3808,-0.183948 0.73061,-0.382415 1.04945,-0.595417 0.32767,-0.212988 0.59335,-0.401779 0.79705,-0.566375 l 0.49152,0 0,4.196981 c -0.38083,0.164582 -0.73065,0.319489 -1.04945,0.464706 -0.30999,0.135542 -0.7395,0.275928 -1.28857,0.421158 -0.50482,0.145217 -1.02732,0.256563 -1.56754,0.334009 -0.53137,0.0872 -1.1823,0.130737 -1.95278,0.130737 m 1.54098,-10.688491 c -0.0266,-1.074643 -0.25685,-1.89275 -0.69078,-2.454294 -0.42511,-0.561517 -1.08047,-0.842276 -1.96606,-0.842289 -0.90334,1.3e-5 -1.61183,0.295292 -2.12547,0.885864 -0.50482,0.590585 -0.78379,1.394158 -0.83692,2.410719 l 5.61923,0" />
</svg>
