<?xml version="1.0" encoding="UTF-8" standalone="no"?>
<!-- Created with Inkscape (http://www.inkscape.org/) -->

<svg
   xmlns:dc="http://purl.org/dc/elements/1.1/"
   xmlns:cc="http://creativecommons.org/ns#"
   xmlns:rdf="http://www.w3.org/1999/02/22-rdf-syntax-ns#"
   xmlns:svg="http://www.w3.org/2000/svg"
   xmlns="http://www.w3.org/2000/svg"
   xmlns:xlink="http://www.w3.org/1999/xlink"
   xmlns:sodipodi="http://sodipodi.sourceforge.net/DTD/sodipodi-0.dtd"
   xmlns:inkscape="http://www.inkscape.org/namespaces/inkscape"
   version="1.1"
   width="130"
   height="45"
   id="svg3512"
   inkscape:version="0.48.1 r9760"
   sodipodi:docname="parole.svg">
  <sodipodi:namedview
     pagecolor="#ffffff"
     bordercolor="#666666"
     borderopacity="1"
     objecttolerance="10"
     gridtolerance="10"
     guidetolerance="10"
     inkscape:pageopacity="0"
     inkscape:pageshadow="2"
     inkscape:window-width="1366"
     inkscape:window-height="722"
     id="namedview30"
     showgrid="false"
     inkscape:zoom="4.6807445"
     inkscape:cx="118.4532"
     inkscape:cy="17.290193"
     inkscape:window-x="0"
     inkscape:window-y="24"
     inkscape:window-maximized="1"
     inkscape:current-layer="svg3512"
     inkscape:showpageshadow="false" />
  <defs
     id="defs3514">
    <filter
       x="-0.030584235"
       y="-0.11262146"
       width="1.0611686"
       height="1.2252429"
       color-interpolation-filters="sRGB"
       id="filter5532-2-6">
      <feGaussianBlur
         stdDeviation="2.1783412"
         id="feGaussianBlur5534-2-5" />
    </filter>
    <linearGradient
       x1="-301.94296"
       y1="-1041.46"
       x2="-301.94296"
       y2="-1063.795"
       id="linearGradient4560"
       xlink:href="#linearGradient5544-7-7-2"
       gradientUnits="userSpaceOnUse"
       gradientTransform="matrix(0.35865742,0,0,0.39208725,456.22244,772.79785)" />
    <linearGradient
       id="linearGradient5544-7-7-2">
      <stop
         id="stop5546-1-2-4"
         style="stop-color:#ababab;stop-opacity:1"
         offset="0" />
      <stop
         id="stop5548-5-7-7"
         style="stop-color:#ffffff;stop-opacity:1"
         offset="1" />
    </linearGradient>
    <filter
       color-interpolation-filters="sRGB"
       id="filter5406-9-8">
      <feGaussianBlur
         stdDeviation="3.6708836"
         id="feGaussianBlur5408-4-5" />
    </filter>
    <linearGradient
       x1="1889.2493"
       y1="615.00195"
       x2="1889.2493"
       y2="518.375"
       id="linearGradient4558"
       xlink:href="#linearGradient5410-61-1"
       gradientUnits="userSpaceOnUse"
       gradientTransform="matrix(0.40544565,0,0,0.40528245,-407.05517,102.91453)" />
    <linearGradient
       id="linearGradient5410-61-1">
      <stop
         id="stop5412-06-33"
         style="stop-color:#ececec;stop-opacity:1"
         offset="0" />
      <stop
         id="stop5414-1-3"
         style="stop-color:#ffffff;stop-opacity:1"
         offset="1" />
    </linearGradient>
  </defs>
  <metadata
     id="metadata3517">
    <rdf:RDF>
      <cc:Work
         rdf:about="">
        <dc:format>image/svg+xml</dc:format>
        <dc:type
           rdf:resource="http://purl.org/dc/dcmitype/StillImage" />
        <dc:title />
      </cc:Work>
    </rdf:RDF>
  </metadata>
  <g
     transform="matrix(1.1429656,0,0,1.1429656,-395.37667,-373.6242)"
     id="layer1">
    <g
       transform="matrix(0.8519841,0,0,0.8519841,58.698941,70.359487)"
       id="g4544"
       style="display:inline">
      <path
         d="m 1221.9135,512.32733 95.2663,34.62945 c 4.0097,3.11381 9.0358,4.72346 9.279,13.40927 l -4.4898,98.48352 c -1.3964,4.71612 -0.1874,9.00418 -7.0712,14.62197 l -71.7083,59.1861 c -6.068,1.98464 -12.902,4.3055 -22.6672,-0.0913 l -79.8629,-53.62794 c -2.7566,-3.1045 -6.0999,-5.05025 -6.9842,-11.84662 l -10.879,-101.99859 c -1.6975,-8.32107 1.9971,-12.84358 7.2224,-16.2875 l 75.8454,-36.64983 c 5.3497,-2.57343 10.6998,-2.16319 16.0495,0.17141 z"
         transform="matrix(0.18817519,0,0,0.18821004,127.57626,207.08338)"
         id="path5431-7-3"
         style="fill:#000000;fill-opacity:0.91549294;fill-rule:evenodd;stroke:none;display:inline;filter:url(#filter5406-9-8)"
         inkscape:connector-curvature="0" />
      <path
         d="m 357.51006,302.98078 17.92673,6.51765 c 0.8979,0.32644 1.70032,0.88897 1.74611,2.52375 l -0.84488,18.53557 c -0.26276,0.88763 -0.0352,1.6947 -1.33065,2.75198 l -13.4937,11.13945 c -1.07257,0.88545 -2.72291,1.01872 -4.2654,-0.0172 l -15.02823,-10.09331 c -0.5187,-0.58433 -1.14784,-0.95052 -1.31423,-2.22968 l -2.04716,-19.19715 c -0.31943,-1.56607 0.37579,-2.41729 1.35907,-3.06547 l 14.2722,-6.89787 c 1.00669,-0.48431 2.01345,-0.40713 3.02014,0.0323 l 0,8e-5 z"
         id="path5436-1-5"
         style="fill:url(#linearGradient4558);fill-opacity:1;fill-rule:evenodd;stroke:none;display:inline"
         inkscape:connector-curvature="0" />
      <path
         d="m 356.16149,304.57978 c -0.29577,0.0236 -0.60045,0.13271 -0.95933,0.37294 -3.99656,1.8657 -7.99455,3.72787 -11.99111,5.59357 -1.07404,0.50141 -1.0398,0.50539 0.0533,0.99446 5.17518,2.50677 10.35112,5.00468 15.52627,7.5114 0.96341,0.46665 1.34055,0.43662 2.25611,-0.23081 4.08,-2.352 8.15982,-4.71544 12.23985,-7.06755 1.27868,-0.7371 1.11578,-0.70129 -0.24873,-1.17191 -5.0955,-1.87196 -10.19974,-3.73946 -15.29535,-5.61135 -0.62753,-0.23063 -1.08818,-0.43016 -1.581,-0.39075 z m 4.92078,3.21412 2.82458,1.1187 -5.41823,7.74229 -2.8068,-1.36729 1.01258,-1.22527 -3.09105,-1.43839 -1.91858,0.74584 -2.86012,-1.3851 12.25762,-4.19078 z m -0.85275,2.11313 -4.13913,1.72252 1.91861,0.85238 2.22052,-2.5749 z"
         id="path5440-1-0"
         style="fill:#dc0d00;fill-opacity:0.99612403;fill-rule:evenodd;stroke:none;display:inline"
         inkscape:connector-curvature="0" />
      <path
         d="m 340.79504,313.95572 c -0.26202,0.0139 -0.16347,0.43485 -0.0533,1.33188 l 1.74094,15.9462 c 0.0904,0.8304 0.17321,1.18643 0.97706,1.58044 4.34726,2.91218 8.6919,5.82446 13.03924,8.73671 0.90877,0.60889 0.94368,0.63945 0.906,-0.49721 0.0516,-5.74185 -0.0515,-11.53699 0,-17.27809 0.007,-0.80482 0.0334,-1.09046 -0.78165,-1.4028 -5.01214,-2.69051 -9.8817,-5.33827 -14.88679,-8.02638 -0.49856,-0.26764 -0.78428,-0.39889 -0.94151,-0.39075 z m 4.24575,7.04977 5.18726,2.37953 c 0.86051,0.50651 1.53274,1.15792 2.02519,1.93552 0.49657,0.78008 0.78498,1.54133 0.83493,2.29076 0.042,0.6285 -0.092,1.07565 -0.39082,1.33178 -0.19924,0.17074 -0.51326,0.21649 -0.92374,0.14205 0.65355,0.56126 1.16183,1.14937 1.4922,1.77577 0.33405,0.624 0.52335,1.27647 0.56846,1.95334 0.0364,0.55114 -0.0455,0.98291 -0.23092,1.29626 -0.18589,0.31335 -0.46084,0.49632 -0.81716,0.53277 -0.22073,0.0233 -0.55062,-0.0642 -1.01258,-0.26637 -0.61451,-0.26883 -1.04059,-0.46657 -1.24354,-0.58601 l -4.76092,-2.80567 -0.72836,-9.97973 z m 2.94892,3.1431 0.14213,2.00655 1.19025,0.71033 c 0.43027,0.25327 0.7335,0.34245 0.88822,0.2664 0.15863,-0.0786 0.21765,-0.28793 0.19541,-0.62153 -0.0202,-0.30945 -0.12003,-0.59572 -0.30202,-0.87011 -0.17805,-0.27203 -0.47018,-0.53528 -0.88819,-0.78131 l -1.2258,-0.71033 z m 0.26651,4.03091 0.15987,2.16642 1.4034,0.81686 c 0.4749,0.27952 0.79545,0.38546 0.97702,0.30191 0.18139,-0.0884 0.27128,-0.3009 0.24874,-0.63926 -0.0206,-0.31429 -0.14798,-0.62018 -0.35531,-0.9234 -0.20363,-0.3057 -0.54732,-0.6036 -1.03032,-0.88793 l -1.4034,-0.8346 z"
         id="path5442-5-8"
         style="fill:#157a00;fill-opacity:0.75;fill-rule:evenodd;stroke:none;display:inline"
         inkscape:connector-curvature="0" />
      <path
         d="m 375.29395,313.45854 c -0.1137,-0.004 -0.31076,0.12968 -0.65726,0.39071 -4.29297,2.78164 -8.49627,5.36652 -12.79054,8.15067 -0.73069,0.47452 -0.82309,0.72 -0.71059,1.63365 0.11528,5.84786 0.22234,11.69655 0.33754,17.54445 0.0475,0.37515 0.30982,0.65088 0.87045,0.2841 l 11.63584,-9.67785 c 0.35655,-0.45848 0.64886,-0.96447 0.63956,-1.65143 0.27292,-4.86405 0.50625,-10.86289 0.78161,-15.67991 0.0364,-0.62666 0.0829,-0.99008 -0.10661,-0.99439 z m -5.02736,7.2096 c 0.30922,-0.0199 0.59377,0.018 0.83493,0.10646 0.64707,0.23434 1.12557,0.83689 1.43892,1.81137 l -2.45153,1.81117 c -0.0855,-0.28376 -0.17287,-0.48041 -0.26644,-0.58597 -0.15465,-0.17817 -0.34462,-0.27285 -0.5685,-0.30184 -0.22383,-0.0289 -0.46938,0.0281 -0.7461,0.15979 -0.6267,0.29846 -1.10523,0.82095 -1.43891,1.5804 -0.25234,0.56572 -0.37309,1.31883 -0.37309,2.27295 0,1.18173 0.14295,1.9224 0.44415,2.21973 0.30113,0.29247 0.71592,0.31298 1.26128,0.0532 0.52901,-0.25185 0.93937,-0.6195 1.20799,-1.10089 0.27266,-0.48341 0.46413,-1.09774 0.58623,-1.82906 l 2.43375,-0.2841 c -0.16282,0.88631 -0.43166,1.68817 -0.78165,2.39726 -0.34995,0.70912 -0.77591,1.32262 -1.29682,1.8468 -0.51683,0.52211 -1.18789,0.9855 -1.98964,1.36729 -0.97264,0.46316 -1.76186,0.67886 -2.38046,0.63926 -0.61451,-0.0463 -1.15114,-0.39555 -1.59881,-1.0299 -0.44768,-0.63443 -0.65727,-1.60781 -0.65727,-2.93006 0,-1.76284 0.387,-3.29847 1.17248,-4.61697 0.78952,-1.32513 1.89904,-2.33265 3.33971,-3.01867 0.70459,-0.33555 1.31438,-0.53471 1.82978,-0.56824 z"
         id="path5444-9-0"
         style="fill:#145dab;fill-opacity:0.9263566;fill-rule:evenodd;stroke:none;display:inline"
         inkscape:connector-curvature="0" />
    </g>
    <g
       transform="matrix(1.1106489,0,0,1.1106489,25.779821,-52.009693)"
       id="g4551"
       style="display:inline">
      <g
         transform="matrix(0.35865742,0,0,0.39208725,456.22244,772.79781)"
         style="font-size:59.75520706px;font-style:normal;font-variant:normal;font-weight:bold;font-stretch:normal;text-align:start;line-height:100%;writing-mode:lr-tb;text-anchor:start;fill:#000000;fill-opacity:0.6302817;fill-rule:evenodd;stroke:none;stroke-width:1;marker:none;visibility:visible;display:inline;overflow:visible;filter:url(#filter5532-2-6);enable-background:accumulate;font-family:Tahoma;-inkscape-font-specification:Tahoma Bold"
         id="text5510-7-4">
        <path
           d="m -325.21093,-1066.9435 c -4e-5,2.023 -0.32099,3.9487 -0.96285,5.7771 -0.64194,1.8285 -1.56589,3.3554 -2.77185,4.5808 -0.73919,0.7587 -1.55616,1.4589 -2.4509,2.1008 -0.87535,0.6419 -1.84792,1.1866 -2.91773,1.6339 -1.06986,0.4475 -2.23696,0.7976 -3.50128,1.0504 -1.24493,0.2529 -2.64544,0.3794 -4.20154,0.3793 l -5.71876,0 0,14.2094 -10.91233,0 0,-43.4451 16.86451,0 c 2.50923,10e-5 4.66835,0.2335 6.47737,0.7003 1.82842,0.4474 3.4818,1.1671 4.96015,2.1591 1.6339,1.0893 2.89825,2.5482 3.79305,4.3766 0.89474,1.8091 1.34212,3.9682 1.34216,6.4774 m -11.2041,0.2626 c -3e-5,-1.2254 -0.2918,-2.2758 -0.87532,-3.1512 -0.58357,-0.8947 -1.28383,-1.5074 -2.10077,-1.8381 -1.03095,-0.4474 -2.02298,-0.7003 -2.97609,-0.7587 -0.93369,-0.078 -2.20777,-0.1166 -3.82223,-0.1167 l -1.5464,0 0,13.0131 0.75861,0 c 1.03092,10e-5 2.00349,-0.01 2.91774,-0.029 0.9142,-0.02 1.71171,-0.088 2.39254,-0.2043 0.58352,-0.097 1.19625,-0.282 1.83817,-0.5544 0.66133,-0.2917 1.16707,-0.6127 1.51722,-0.9628 0.73914,-0.7197 1.23515,-1.4686 1.48805,-2.2467 0.27229,-0.778 0.40845,-1.8284 0.40848,-3.1511"
           style="letter-spacing:-2.92591357;fill:#000000;marker:none;font-family:Tahoma;-inkscape-font-specification:Tahoma Bold"
           id="path3789"
           inkscape:connector-curvature="0" />
        <path
           d="m -304.76579,-1045.7608 0,-6.8275 c -1.73121,0.1751 -3.13172,0.3307 -4.20154,0.4669 -1.06985,0.1167 -2.12023,0.3599 -3.15115,0.7294 -0.89479,0.3113 -1.59504,0.7878 -2.10077,1.4297 -0.4863,0.6225 -0.72945,1.4589 -0.72943,2.5093 -2e-5,1.5366 0.40847,2.5968 1.22544,3.1803 0.83641,0.5641 2.06186,0.8461 3.67635,0.8461 0.89476,0 1.80898,-0.2042 2.74267,-0.6127 0.93366,-0.4085 1.7798,-0.9823 2.53843,-1.7215 m 0,5.0769 c -0.70028,0.5836 -1.33245,1.1087 -1.89653,1.5756 -0.54466,0.4668 -1.28382,0.9337 -2.21748,1.4005 -0.91424,0.4474 -1.80901,0.7878 -2.68431,1.0212 -0.85588,0.2334 -2.06188,0.3501 -3.61799,0.3501 -2.89829,0 -5.31029,-0.9725 -7.23598,-2.9177 -1.90626,-1.9452 -2.85939,-4.3961 -2.85938,-7.3527 -10e-6,-2.4314 0.48628,-4.396 1.45886,-5.8938 0.97258,-1.4978 2.37309,-2.6843 4.20154,-3.5597 1.84789,-0.8947 4.05564,-1.5172 6.62326,-1.8673 2.56759,-0.3501 5.32971,-0.6224 8.28637,-0.817 l 0,-0.175 c -3e-5,-1.809 -0.67111,-3.0539 -2.01324,-3.7347 -1.32273,-0.7003 -3.31651,-1.0504 -5.98136,-1.0504 -1.20601,0 -2.61624,0.2237 -4.23071,0.6711 -1.61449,0.4279 -3.19007,0.9823 -4.72673,1.6631 l -0.87532,0 0,-7.9071 c 1.01147,-0.2917 2.6454,-0.6321 4.90179,-1.0212 2.25637,-0.4085 4.5322,-0.6127 6.8275,-0.6127 5.64093,0 9.74521,0.9434 12.31284,2.8302 2.58703,1.8674 3.88056,4.7267 3.88059,8.5781 l 0,22.2915 -10.15372,0 0,-3.4721"
           style="letter-spacing:-2.92591357;fill:#000000;marker:none;font-family:Tahoma;-inkscape-font-specification:Tahoma Bold"
           id="path3791"
           inkscape:connector-curvature="0" />
        <path
           d="m -268.03969,-1060.3203 -0.84614,0 c -0.38906,-0.1361 -0.95315,-0.2333 -1.69229,-0.2917 -0.73918,-0.078 -1.55614,-0.1167 -2.4509,-0.1167 -1.06985,0 -2.19804,0.1556 -3.38457,0.4668 -1.16711,0.3113 -2.30502,0.6808 -3.41375,1.1087 l 0,21.9414 -10.21207,0 0,-32.7662 10.21207,0 0,4.6976 c 0.46683,-0.4279 1.10873,-0.9628 1.92571,-1.6048 0.8364,-0.6613 1.59501,-1.1865 2.27583,-1.5755 0.73914,-0.4474 1.59501,-0.8267 2.56761,-1.1379 0.99201,-0.3307 1.92568,-0.496 2.80102,-0.4961 0.33066,1e-4 0.70023,0.01 1.10874,0.029 0.40846,0.019 0.77804,0.049 1.10874,0.087 l 0,9.6577"
           style="letter-spacing:-2.92591357;fill:#000000;marker:none;font-family:Tahoma;-inkscape-font-specification:Tahoma Bold"
           id="path3793"
           inkscape:connector-curvature="0" />
        <path
           d="m -235.60265,-1053.5803 c -4e-5,5.3881 -1.47836,9.6383 -4.43496,12.7505 -2.93722,3.0928 -7.09985,4.6392 -12.48791,4.6392 -5.34919,0 -9.51182,-1.5464 -12.4879,-4.6392 -2.95664,-3.1122 -4.43496,-7.3624 -4.43496,-12.7505 0,-5.4464 1.47832,-9.7063 4.43496,-12.7797 2.97608,-3.0927 7.13871,-4.6391 12.4879,-4.6392 5.36861,10e-5 9.53124,1.5562 12.48791,4.6684 2.9566,3.0928 4.43492,7.343 4.43496,12.7505 m -10.47467,0.058 c -3e-5,-1.9452 -0.16536,-3.5596 -0.49602,-4.8435 -0.31125,-1.3032 -0.74891,-2.3439 -1.31298,-3.1219 -0.60302,-0.817 -1.28382,-1.3811 -2.04241,-1.6923 -0.75863,-0.3307 -1.62423,-0.496 -2.59679,-0.496 -0.91424,0 -1.74093,0.1459 -2.48007,0.4376 -0.73917,0.2724 -1.41998,0.8073 -2.04241,1.6048 -0.58356,0.7586 -1.0504,1.7993 -1.40052,3.1219 -0.35014,1.3228 -0.5252,2.9859 -0.52519,4.9894 -1e-5,2.0035 0.16533,3.6277 0.49602,4.8726 0.33066,1.2254 0.75859,2.2077 1.2838,2.9469 0.54463,0.7586 1.22543,1.313 2.04241,1.6631 0.81695,0.3501 1.72145,0.5252 2.7135,0.5252 0.81694,0 1.64363,-0.1751 2.48007,-0.5252 0.85585,-0.3501 1.53665,-0.8753 2.04242,-1.5756 0.60297,-0.8364 1.06008,-1.8381 1.37133,-3.0052 0.3112,-1.1866 0.46681,-2.8205 0.46684,-4.9018"
           style="letter-spacing:-2.92591357;fill:#000000;marker:none;font-family:Tahoma;-inkscape-font-specification:Tahoma Bold"
           id="path3795"
           inkscape:connector-curvature="0" />
        <path
           d="m -222.88951,-1037.2118 -10.21207,0 0,-45.3999 10.21207,0 0,45.3999"
           style="letter-spacing:-2.92591357;fill:#000000;marker:none;font-family:Tahoma;-inkscape-font-specification:Tahoma Bold"
           id="path3797"
           inkscape:connector-curvature="0" />
        <path
           d="m -201.16057,-1036.3365 c -6.18561,0 -10.93179,-1.4783 -14.23854,-4.4349 -3.28732,-2.9567 -4.93097,-7.1679 -4.93097,-12.6338 0,-5.3492 1.53667,-9.6188 4.61002,-12.8089 3.07334,-3.19 7.37213,-4.785 12.89639,-4.7851 5.01847,10e-5 8.79207,1.352 11.32081,4.0557 2.52867,2.7038 3.79302,6.5746 3.79305,11.6126 l 0,3.6763 -22.37902,0 c 0.0972,1.5173 0.41819,2.7913 0.96285,3.8223 0.54463,1.0114 1.26434,1.8187 2.15912,2.4217 0.87531,0.603 1.89651,1.0406 3.06362,1.313 1.16708,0.2528 2.44115,0.3793 3.82224,0.3793 1.18652,0 2.35361,-0.1265 3.50128,-0.3793 1.14761,-0.2724 2.198,-0.6225 3.15115,-1.0504 0.83639,-0.3696 1.60472,-0.7684 2.30501,-1.1963 0.71968,-0.4279 1.30322,-0.8072 1.75064,-1.1379 l 1.07956,0 0,8.4322 c -0.83645,0.3307 -1.60478,0.6419 -2.30501,0.9337 -0.68083,0.2723 -1.62423,0.5544 -2.8302,0.8462 -1.10877,0.2917 -2.25641,0.5154 -3.44293,0.671 -1.16711,0.1751 -2.5968,0.2626 -4.28907,0.2626 m 3.38458,-21.4745 c -0.0584,-2.1591 -0.56412,-3.8028 -1.51723,-4.931 -0.93369,-1.1281 -2.37311,-1.6922 -4.31824,-1.6923 -1.98408,10e-5 -3.5402,0.5933 -4.66838,1.7799 -1.10875,1.1865 -1.72147,2.801 -1.83817,4.8434 l 12.34202,0"
           style="letter-spacing:-2.92591357;fill:#000000;marker:none;font-family:Tahoma;-inkscape-font-specification:Tahoma Bold"
           id="path3799"
           inkscape:connector-curvature="0" />
      </g>
      <g
         transform="scale(0.95641978,1.045566)"
         style="font-size:22.40820312px;font-style:normal;font-variant:normal;font-weight:bold;font-stretch:normal;text-align:start;line-height:100%;writing-mode:lr-tb;text-anchor:start;fill:#ffffff;fill-opacity:1;fill-rule:evenodd;stroke:none;stroke-width:1;marker:none;visibility:visible;display:inline;overflow:visible;enable-background:accumulate;font-family:Tahoma;-inkscape-font-specification:Tahoma Bold"
         id="text5475-6-1">
        <path
           d="m 354.77929,338.50808 c -2e-5,0.75862 -0.12038,1.48076 -0.36107,2.16641 -0.24073,0.68568 -0.58721,1.25829 -1.03945,1.71782 -0.27719,0.28449 -0.58356,0.54708 -0.91908,0.78779 -0.32826,0.24072 -0.69298,0.44496 -1.09415,0.61272 -0.4012,0.16778 -0.83886,0.29908 -1.31298,0.3939 -0.46685,0.0948 -0.99204,0.14224 -1.57558,0.14224 l -2.14454,0 0,5.32851 -4.09212,0 0,-16.2919 6.32419,0 c 0.94096,2e-5 1.75063,0.0876 2.42901,0.2626 0.68566,0.16778 1.30568,0.43767 1.86006,0.80967 0.61271,0.40849 1.08684,0.95557 1.4224,1.64122 0.33552,0.67839 0.50329,1.48806 0.50331,2.42902 m -4.20154,0.0985 c -10e-6,-0.45953 -0.10943,-0.85343 -0.32825,-1.18168 -0.21884,-0.33553 -0.48143,-0.5653 -0.78779,-0.68932 -0.3866,-0.16775 -0.75862,-0.26258 -1.11603,-0.28448 -0.35014,-0.0292 -0.82791,-0.0437 -1.43334,-0.0438 l -0.5799,0 0,4.87991 0.28448,0 c 0.3866,10e-6 0.75131,-0.004 1.09415,-0.0109 0.34283,-0.007 0.6419,-0.0328 0.89721,-0.0766 0.21882,-0.0365 0.44859,-0.10576 0.68931,-0.20789 0.248,-0.10941 0.43765,-0.22976 0.56896,-0.36107 0.27717,-0.26988 0.46318,-0.55071 0.55802,-0.8425 0.10211,-0.29176 0.15317,-0.68565 0.15318,-1.18168"
           style="letter-spacing:-1.09721756;fill:#ffffff;marker:none;font-family:Tahoma;-inkscape-font-specification:Tahoma Bold"
           id="path3008"
           inkscape:connector-curvature="0" />
        <path
           d="m 362.44621,346.45161 0,-2.56031 c -0.6492,0.0657 -1.17439,0.12401 -1.57557,0.17506 -0.4012,0.0438 -0.79509,0.13495 -1.18169,0.27354 -0.33554,0.11671 -0.59814,0.29542 -0.78778,0.53613 -0.18237,0.23343 -0.27355,0.54708 -0.27354,0.94097 -1e-5,0.57626 0.15317,0.9738 0.45954,1.19263 0.31365,0.21153 0.7732,0.3173 1.37863,0.3173 0.33553,0 0.67837,-0.0766 1.0285,-0.22977 0.35012,-0.15318 0.66743,-0.36836 0.95191,-0.64555 m 0,1.90382 c -0.2626,0.21883 -0.49967,0.41578 -0.71119,0.59084 -0.20425,0.17507 -0.48144,0.35013 -0.83156,0.5252 -0.34284,0.16776 -0.67838,0.29542 -1.00662,0.38295 -0.32095,0.0875 -0.7732,0.1313 -1.35674,0.1313 -1.08686,0 -1.99136,-0.36472 -2.7135,-1.09415 -0.71484,-0.72944 -1.07227,-1.64852 -1.07226,-2.75726 -1e-5,-0.91179 0.18235,-1.64852 0.54707,-2.21019 0.36472,-0.56166 0.88991,-1.00661 1.57558,-1.33486 0.69296,-0.33553 1.52086,-0.56895 2.48372,-0.70026 0.96285,-0.13129 1.99864,-0.23341 3.10739,-0.30636 l 0,-0.0657 c -10e-6,-0.67836 -0.25167,-1.1452 -0.75497,-1.40051 -0.49602,-0.26259 -1.24369,-0.39389 -2.24301,-0.3939 -0.45225,10e-6 -0.98109,0.0839 -1.58651,0.25166 -0.60544,0.16048 -1.19628,0.36837 -1.77253,0.62366 l -0.32824,0 0,-2.96514 c 0.3793,-0.10941 0.99202,-0.23706 1.83817,-0.38296 0.84614,-0.15316 1.69958,-0.22976 2.56031,-0.22977 2.11535,1e-5 3.65446,0.35379 4.61732,1.06133 0.97013,0.70027 1.45521,1.77253 1.45522,3.2168 l 0,8.35931 -3.80765,0 0,-1.30204"
           style="letter-spacing:-1.09721756;fill:#ffffff;marker:none;font-family:Tahoma;-inkscape-font-specification:Tahoma Bold"
           id="path3010"
           inkscape:connector-curvature="0" />
        <path
           d="m 376.2185,340.9918 -0.3173,0 c -0.1459,-0.0511 -0.35743,-0.0875 -0.63461,-0.10942 -0.27719,-0.0292 -0.58355,-0.0437 -0.91909,-0.0438 -0.40119,1e-5 -0.82426,0.0584 -1.26921,0.17506 -0.43767,0.11672 -0.86438,0.25531 -1.28016,0.41578 l 0,8.22801 -3.82952,0 0,-12.28731 3.82952,0 0,1.76158 c 0.17506,-0.16046 0.41578,-0.36106 0.72214,-0.60178 0.31365,-0.248 0.59813,-0.44494 0.85344,-0.59084 0.27718,-0.16776 0.59813,-0.31 0.96285,-0.42672 0.37201,-0.12399 0.72213,-0.18599 1.05039,-0.18601 0.12399,2e-5 0.26258,0.004 0.41577,0.0109 0.15318,0.007 0.29177,0.0182 0.41578,0.0328 l 0,3.62164"
           style="letter-spacing:-1.09721756;fill:#ffffff;marker:none;font-family:Tahoma;-inkscape-font-specification:Tahoma Bold"
           id="path3012"
           inkscape:connector-curvature="0" />
        <path
           d="m 388.38239,343.51929 c -10e-6,2.02053 -0.55438,3.61434 -1.66311,4.78143 -1.10146,1.1598 -2.66244,1.7397 -4.68296,1.7397 -2.00595,0 -3.56694,-0.5799 -4.68297,-1.7397 -1.10874,-1.16709 -1.66311,-2.7609 -1.66311,-4.78143 0,-2.04241 0.55437,-3.63987 1.66311,-4.79238 1.11603,-1.15979 2.67702,-1.73969 4.68297,-1.7397 2.01322,10e-6 3.57421,0.58356 4.68296,1.75064 1.10873,1.15981 1.6631,2.75362 1.66311,4.78144 m -3.928,0.0219 c -10e-6,-0.72943 -0.062,-1.33486 -0.18601,-1.81629 -0.11672,-0.48871 -0.28084,-0.87896 -0.49236,-1.17074 -0.22614,-0.30635 -0.48144,-0.51789 -0.76591,-0.63461 -0.28449,-0.12399 -0.60908,-0.18599 -0.97379,-0.186 -0.34284,1e-5 -0.65285,0.0547 -0.93003,0.16412 -0.27719,0.10213 -0.53249,0.30272 -0.76591,0.60178 -0.21883,0.28449 -0.3939,0.67474 -0.52519,1.17074 -0.1313,0.49602 -0.19695,1.11969 -0.19695,1.871 0,0.75132 0.062,1.3604 0.18601,1.82723 0.124,0.45955 0.28447,0.82791 0.48143,1.10509 0.20423,0.28448 0.45953,0.49237 0.7659,0.62367 0.30636,0.1313 0.64554,0.19695 1.01756,0.19695 0.30636,0 0.61636,-0.0657 0.93003,-0.19695 0.32094,-0.1313 0.57624,-0.32824 0.7659,-0.59084 0.22612,-0.31366 0.39754,-0.68931 0.51425,-1.12698 0.1167,-0.44495 0.17506,-1.05767 0.17507,-1.83817"
           style="letter-spacing:-1.09721756;fill:#ffffff;marker:none;font-family:Tahoma;-inkscape-font-specification:Tahoma Bold"
           id="path3014"
           inkscape:connector-curvature="0" />
        <path
           d="m 393.14982,349.65747 -3.82953,0 0,-17.02498 3.82953,0 0,17.02498"
           style="letter-spacing:-1.09721756;fill:#ffffff;marker:none;font-family:Tahoma;-inkscape-font-specification:Tahoma Bold"
           id="path3016"
           inkscape:connector-curvature="0" />
        <path
           d="m 401.29817,349.98572 c -2.3196,0 -4.09942,-0.55437 -5.33945,-1.66311 -1.23275,-1.10874 -1.84912,-2.68796 -1.84912,-4.73767 0,-2.00594 0.57626,-3.60704 1.72876,-4.80333 1.1525,-1.19625 2.76455,-1.79439 4.83615,-1.7944 1.88193,10e-6 3.29703,0.50697 4.2453,1.52087 0.94825,1.01392 1.42238,2.46549 1.4224,4.35472 l 0,1.37863 -8.39214,0 c 0.0365,0.56896 0.15683,1.04674 0.36107,1.43333 0.20424,0.37931 0.47413,0.68203 0.80967,0.90815 0.32824,0.22612 0.71119,0.39025 1.14886,0.49237 0.43765,0.0948 0.91543,0.14224 1.43334,0.14223 0.44494,10e-6 0.8826,-0.0474 1.31298,-0.14223 0.43036,-0.10212 0.82425,-0.23342 1.18168,-0.3939 0.31365,-0.13859 0.60177,-0.28812 0.86438,-0.4486 0.26988,-0.16047 0.48871,-0.30271 0.65649,-0.42672 l 0.40484,0 0,3.1621 c -0.31367,0.124 -0.6018,0.24071 -0.86438,0.35012 -0.25532,0.10212 -0.60909,0.20789 -1.06133,0.31731 -0.41579,0.10941 -0.84615,0.1933 -1.2911,0.25165 -0.43766,0.0657 -0.9738,0.0985 -1.6084,0.0985 m 1.26922,-8.05295 c -0.0219,-0.80966 -0.21155,-1.42604 -0.56896,-1.84912 -0.35014,-0.42306 -0.88992,-0.63459 -1.61934,-0.6346 -0.74403,10e-6 -1.32758,0.22248 -1.75064,0.66743 -0.41579,0.44496 -0.64556,1.05039 -0.68932,1.81629 l 4.62826,0"
           style="letter-spacing:-1.09721756;fill:#ffffff;marker:none;font-family:Tahoma;-inkscape-font-specification:Tahoma Bold"
           id="path3018"
           inkscape:connector-curvature="0" />
      </g>
      <path
         d="m 372.65601,365.28999 c 1.01955,0 2.03906,0 3.05861,0 0,-5.73049 0,-11.46094 0,-17.19139 -1.01955,0 -2.03906,-3e-5 -3.05861,0 0,5.73045 0,11.4609 0,17.19139 z M 332.22632,348.8603 c -1.53123,0.0292 -3.06228,-0.0146 -4.59375,0 0,5.47658 0,10.95312 0,16.42969 1.10157,0 2.20313,0 3.30469,0 0,-1.85936 0,-3.71876 0,-5.57812 2.19011,0.0378 4.68416,0.19826 6.375,-1.44139 1.75819,-1.66001 2.11163,-4.47784 1.26761,-6.70343 -0.69041,-1.66792 -2.46202,-2.5578 -4.209,-2.64817 -0.7119,-0.0872 -1.42912,-0.0748 -2.14455,-0.0586 z m -1.19531,2.56643 c 1.4223,0.006 3.24769,-0.19421 4.14844,1.11326 0.88024,1.42568 0.4641,3.76481 -1.20701,4.35938 -0.97032,0.3489 -2.02283,0.23265 -3.03518,0.24611 0,-1.90628 0,-3.81251 0,-5.71875 l 0.0937,0 z m 51.82031,1.23045 c -2.27343,-0.0124 -4.4634,1.45384 -5.11886,3.60341 -0.75701,2.15198 -0.68209,4.69744 0.37789,6.70508 1.18057,1.97572 3.5529,2.7198 5.74879,2.66418 1.47127,-0.006 2.9538,-0.3354 4.26562,-0.94923 0,-0.92187 0,-1.84377 0,-2.76563 -0.76444,0.48638 -1.50956,1.00185 -2.40712,1.21073 -1.69594,0.48206 -3.93409,0.26632 -4.91708,-1.35135 -0.38677,-0.64035 -0.52639,-1.40509 -0.49219,-2.15625 2.67578,0 5.35155,0 8.02733,0 0.0693,-2.03749 -0.0814,-4.44893 -1.66406,-5.88282 -0.99713,-0.87052 -2.48505,-1.14285 -3.82032,-1.07812 z m -18.1992,0.0116 c -1.93803,0.1239 -3.76185,1.38109 -4.46002,3.21747 -0.55808,1.29585 -0.60465,2.83788 -0.53216,4.25913 0.16616,2.0364 1.11903,4.16277 3.08385,5.02238 1.91786,0.8169 4.27466,0.70684 6.04503,-0.41693 1.72797,-1.24087 2.37349,-3.39195 2.34882,-5.44916 0.0723,-2.1006 -0.54934,-4.38274 -2.30194,-5.67191 -1.16591,-0.87818 -2.73709,-1.05225 -4.18358,-0.96098 z m -20.76562,0.0236 c -1.11701,0.0729 -2.21775,0.29126 -3.30469,0.55076 0,0.83205 0,1.66406 0,2.49611 1.53956,-0.6006 3.23276,-1.16613 4.88243,-0.65175 0.86576,0.20194 1.53427,0.95104 1.52377,1.87017 0.11055,0.49215 -0.37984,0.56182 -0.75709,0.54367 -1.99158,0.20618 -4.28355,0.21518 -5.7708,1.74086 -1.23277,1.45384 -1.1274,3.81915 0.0195,5.28634 1.31985,1.54219 3.84743,1.39256 5.25859,0.10523 0.40748,-0.30304 0.81825,-0.72945 1.21875,-1.08987 0,0.58204 0,1.16408 0,1.74612 1.01171,0 2.02343,0 3.03518,0 -0.0774,-3.24469 0.1425,-6.50288 -0.12893,-9.73827 -0.35269,-1.58557 -1.94317,-2.61573 -3.54742,-2.73873 -0.80333,-0.11832 -1.61802,-0.15492 -2.42914,-0.12064 z m 15.08201,0.30465 c -1.52831,0.11021 -2.60265,1.26746 -3.67969,2.26174 0,-0.73827 0,-1.47657 0,-2.21487 -1.01561,0 -2.03126,0 -3.04687,0 0,4.08207 0,8.16409 0,12.24612 1.01561,0 2.03126,0 3.04687,0 0,-2.83594 0,-5.67188 0,-8.50782 1.29173,-0.64278 2.82233,-0.8586 4.23049,-0.62107 0.10673,-0.45293 -0.11561,-0.98048 -0.007,-1.46483 0.009,-0.5625 0.008,-1.125 0.007,-1.68753 -0.18412,0.004 -0.36731,-0.0419 -0.5508,-0.0116 z m 24,1.60549 c 1.3404,-0.0809 2.33329,1.21301 2.35538,2.47192 0.15926,0.45424 -0.16898,0.98336 -0.66788,0.73901 -1.45312,0 -2.90625,0 -4.35937,0 -0.14352,-1.58542 0.93435,-3.32178 2.67187,-3.21093 z m -17.61326,0.29298 c 1.46145,-0.0818 2.49769,1.40828 2.53125,2.78903 0.201,1.56409 0.23741,3.32359 -0.5508,4.71097 -0.74599,1.17972 -2.56594,1.38724 -3.5625,0.41014 -1.12073,-1.23296 -1.02878,-3.09532 -0.96053,-4.67501 0.12975,-1.21718 0.53389,-2.74699 1.84722,-3.12146 0.22522,-0.068 0.46095,-0.0982 0.69536,-0.11367 z m -18.39844,4.44139 c -0.0615,1.03429 0.0951,2.10311 -0.0821,3.11719 -0.90487,1.0416 -2.84145,1.48065 -3.83201,0.33982 -0.77048,-1.01497 -0.27728,-2.82712 1.04295,-3.11715 0.92505,-0.30637 1.90901,-0.34151 2.87111,-0.44535 l 0,0.0937 0,0.0116 z"
         id="path5555-3-5"
         style="font-size:59.75520706px;font-style:normal;font-variant:normal;font-weight:bold;font-stretch:normal;text-align:start;line-height:100%;letter-spacing:-2.92591357;writing-mode:lr-tb;text-anchor:start;opacity:0.52272728;fill:url(#linearGradient4560);fill-opacity:1;fill-rule:evenodd;stroke:none;stroke-width:1;marker:none;visibility:visible;display:inline;font-family:Tahoma;-inkscape-font-specification:Tahoma Bold"
         inkscape:connector-curvature="0" />
    </g>
  </g>
</svg>
